<svg width="40" height="40" viewBox="0 0 40 40" fill="none" xmlns="http://www.w3.org/2000/svg">
<path d="M29.2112 6.21436C26.6877 6.21436 24.6406 8.2614 24.6406 10.7849C24.6406 11.4732 24.7936 12.1261 25.07 12.7085H28.1229C29.4818 12.7085 30.6465 13.7144 30.8465 15.0496C32.5582 14.3908 33.7759 12.7261 33.7759 10.7849C33.7759 8.2614 31.7288 6.21436 29.2112 6.21436Z" fill="#FDFDFD"/>
<path d="M29.2097 4.3313C29.4533 4.3313 29.6509 4.13369 29.6509 3.89012V1.83302C29.6509 1.58946 29.4533 1.39185 29.2097 1.39185C28.9662 1.39185 28.7686 1.58946 28.7686 1.83302V3.89012C28.7686 4.13369 28.9662 4.3313 29.2097 4.3313Z" fill="#FDFDFD"/>
<path d="M24.0235 6.22128C24.1097 6.30745 24.2225 6.35053 24.3354 6.35053C24.4483 6.35053 24.5612 6.30745 24.6473 6.22128C24.8197 6.04895 24.8197 5.76976 24.6473 5.59743L23.1926 4.14292C23.0202 3.97059 22.741 3.97059 22.5687 4.14292C22.3964 4.31526 22.3964 4.59444 22.5687 4.76678L24.0235 6.22128Z" fill="#FDFDFD"/>
<path d="M34.3967 15.3473C34.2243 15.1749 33.9451 15.1749 33.7728 15.3473C33.6005 15.5196 33.6005 15.7988 33.7728 15.9711L35.2273 17.4259C35.3135 17.5121 35.4264 17.5552 35.5392 17.5552C35.6521 17.5552 35.765 17.5121 35.8512 17.4259C36.0235 17.2536 36.0235 16.9744 35.8512 16.8021L34.3967 15.3473Z" fill="#FDFDFD"/>
<path d="M20.2586 11.2256H22.3157C22.5592 11.2256 22.7568 11.028 22.7568 10.7844C22.7568 10.5409 22.5592 10.3433 22.3157 10.3433H20.2586C20.015 10.3433 19.8174 10.5409 19.8174 10.7844C19.8174 11.028 20.015 11.2256 20.2586 11.2256Z" fill="#FDFDFD"/>
<path d="M38.1614 10.3433H36.1043C35.8607 10.3433 35.6631 10.5409 35.6631 10.7844C35.6631 11.028 35.8607 11.2256 36.1043 11.2256H38.1614C38.4049 11.2256 38.6025 11.028 38.6025 10.7844C38.6025 10.5409 38.4049 10.3433 38.1614 10.3433Z" fill="#FDFDFD"/>
<path d="M34.0847 6.35053C34.1976 6.35053 34.3105 6.30745 34.3967 6.22128L35.8512 4.76678C36.0235 4.59444 36.0235 4.31526 35.8512 4.14292C35.6788 3.97059 35.3996 3.97059 35.2273 4.14292L33.7728 5.59743C33.6005 5.76976 33.6005 6.04895 33.7728 6.22128C33.859 6.30745 33.9718 6.35053 34.0847 6.35053Z" fill="#FDFDFD"/>
<path d="M10.7112 17.4729H8.79351C8.08758 17.4729 7.46409 17.12 7.10527 16.5259H6.17L5.39355 21.92H10.7112L10.7112 17.4729Z" fill="#FDFDFD"/>
<path d="M4.5 28.2025H11.4705L11.9117 25.126C11.2117 24.9437 10.7117 24.326 10.7117 23.5613V22.8025H5.27055L4.5 28.2025Z" fill="#FDFDFD"/>
<path d="M20.2256 16.5271L20.9969 21.9226H27.9689L27.1975 16.5271H20.2256Z" fill="#FDFDFD"/>
<path d="M18.4531 16.5259L15.2061 21.92H20.106L19.3355 16.5259H18.4531Z" fill="#FDFDFD"/>
<path d="M13.7172 24.3966C13.5055 24.7495 13.182 25.0025 12.8054 25.1142L12.3643 28.2025H21.0055L20.229 22.8025H14.6761L13.7172 24.3966Z" fill="#FDFDFD"/>
<path d="M29.9762 15.1964C29.8468 14.2729 29.0527 13.5906 28.1232 13.5906H19.3821C19.582 14.1435 19.5232 14.7494 19.2115 15.267L18.982 15.6435H27.5821C27.7997 15.6435 27.9879 15.8082 28.0174 16.0259L29.8115 28.5788C29.8291 28.7082 29.7939 28.8317 29.7114 28.9318C29.6233 29.0259 29.5056 29.0847 29.3762 29.0847H3.98792C3.86441 29.0847 3.74091 29.0259 3.65854 28.9318C3.57619 28.8317 3.53497 28.7082 3.55263 28.5788L5.34678 16.0259C5.38211 15.8082 5.56443 15.6435 5.78796 15.6435H6.81148C6.77615 15.2376 6.87029 14.8259 7.08793 14.4553L7.60558 13.5906H5.24683C4.31148 13.5906 3.52327 14.2729 3.38791 15.1964L1.41741 29.0024C1.25269 30.1318 2.12915 31.1376 3.27029 31.1376H30.0939C31.235 31.1376 32.1115 30.1318 31.9527 29.0024L29.9762 15.1964Z" fill="#FDFDFD"/>
<path d="M28.8663 28.2007L28.095 22.8049H21.123L21.8944 28.2007H28.8663Z" fill="#FDFDFD"/>
<path d="M20.9405 35.9435H19.3935V32.02H13.9699V35.9435H12.4288C11.7347 35.9435 11.1758 36.5024 11.1758 37.1965V38.6082H22.1876V37.1965C22.1876 36.5024 21.6287 35.9435 20.9405 35.9435Z" fill="#FDFDFD"/>
<path d="M8.7935 16.5885H11.594V23.5631C11.594 24.3106 12.5781 24.5838 12.9634 23.9432L18.4547 14.8134C18.8982 14.0761 18.3672 13.137 17.5067 13.137H14.7063V6.16237C14.7063 5.4148 13.7221 5.14161 13.3368 5.78223L7.84552 14.9121C7.40204 15.6494 7.93312 16.5885 8.7935 16.5885Z" fill="#FDFDFD"/>
</svg>
